<svg width="35" height="35" viewBox="0 0 35 35" fill="none" xmlns="http://www.w3.org/2000/svg">
<g id="vuesax/outline/clock">
<g id="clock">
<path id="Vector" d="M17.4993 33.1769C8.85143 33.1769 1.82227 26.1478 1.82227 17.4998C1.82227 8.85192 8.85143 1.82275 17.4993 1.82275C26.1473 1.82275 33.1764 8.85192 33.1764 17.4998C33.1764 26.1478 26.1473 33.1769 17.4993 33.1769ZM17.4993 4.01025C10.0618 4.01025 4.00977 10.0623 4.00977 17.4998C4.00977 24.9373 10.0618 30.9894 17.4993 30.9894C24.9368 30.9894 30.9889 24.9373 30.9889 17.4998C30.9889 10.0623 24.9368 4.01025 17.4993 4.01025Z" fill="#2B2A2A"/>
<path id="Vector_2" d="M22.91 23.2313C22.7204 23.2313 22.5309 23.1876 22.3559 23.0709L17.835 20.373C16.7121 19.7021 15.8809 18.2292 15.8809 16.9313V10.9521C15.8809 10.3542 16.3767 9.8584 16.9746 9.8584C17.5725 9.8584 18.0684 10.3542 18.0684 10.9521V16.9313C18.0684 17.4563 18.5059 18.2292 18.9579 18.4917L23.4788 21.1896C24.0038 21.4959 24.1642 22.1667 23.8579 22.6917C23.6392 23.0417 23.2746 23.2313 22.91 23.2313Z" fill="#2B2A2A"/>
</g>
</g>
</svg>
