<svg width="35" height="35" viewBox="0 0 35 35" fill="none" xmlns="http://www.w3.org/2000/svg">
<g id="vuesax/outline/crown">
<g id="crown">
<path id="Vector" d="M24.3548 28.7731H10.6465C9.56728 28.7731 8.47353 28.0002 8.10895 26.9939L2.07145 10.0919C1.3277 7.9627 1.86728 6.98561 2.45062 6.54811C3.03395 6.11061 4.1277 5.84811 5.9652 7.16061L11.6527 11.2294C11.8277 11.3314 11.9881 11.3752 12.1048 11.346C12.236 11.3023 12.3381 11.1856 12.411 10.9814L14.9777 4.14186C15.7506 2.1002 16.8881 1.79395 17.5006 1.79395C18.1131 1.79395 19.2506 2.1002 20.0235 4.14186L22.5902 10.9814C22.6631 11.171 22.7652 11.3023 22.8965 11.346C23.0277 11.3898 23.1881 11.346 23.3485 11.2148L28.686 7.40853C30.6402 6.00853 31.7777 6.28561 32.4048 6.7377C33.0173 7.20436 33.586 8.23978 32.784 10.5002L26.8923 26.9939C26.5277 28.0002 25.434 28.7731 24.3548 28.7731ZM3.90895 8.47311C3.93812 8.67728 3.99645 8.96895 4.14228 9.34811L10.1798 26.2502C10.2381 26.396 10.5006 26.5856 10.6465 26.5856H24.3548C24.5152 26.5856 24.7777 26.396 24.8215 26.2502L30.7131 9.77103C30.9173 9.21686 30.9756 8.8377 30.9902 8.61895C30.7715 8.69186 30.436 8.85228 29.9548 9.20228L24.6173 13.0085C23.8881 13.5189 23.0277 13.6794 22.2548 13.446C21.4819 13.2127 20.8548 12.6002 20.534 11.7689L17.9673 4.92936C17.7777 4.41895 17.6027 4.17103 17.5006 4.05436C17.3985 4.17103 17.2235 4.41895 17.034 4.91478L14.4673 11.7544C14.161 12.5856 13.534 13.1981 12.7465 13.4314C11.9735 13.6648 11.0985 13.5044 10.384 12.9939L4.69645 8.9252C4.36103 8.69186 4.09853 8.54603 3.90895 8.47311Z" fill="#2B2A2A"/>
<path id="Vector_2" d="M25.5202 33.1772H9.47852C8.8806 33.1772 8.38477 32.6814 8.38477 32.0835C8.38477 31.4856 8.8806 30.9897 9.47852 30.9897H25.5202C26.1181 30.9897 26.6139 31.4856 26.6139 32.0835C26.6139 32.6814 26.1181 33.1772 25.5202 33.1772Z" fill="#2B2A2A"/>
<path id="Vector_3" d="M21.1452 21.5103H13.8535C13.2556 21.5103 12.7598 21.0144 12.7598 20.4165C12.7598 19.8186 13.2556 19.3228 13.8535 19.3228H21.1452C21.7431 19.3228 22.2389 19.8186 22.2389 20.4165C22.2389 21.0144 21.7431 21.5103 21.1452 21.5103Z" fill="#2B2A2A"/>
</g>
</g>
</svg>
