<svg width="36" height="36" viewBox="0 0 36 36" fill="none" xmlns="http://www.w3.org/2000/svg">
<path d="M18.0003 21.2549C14.8053 21.2549 12.1953 18.6599 12.1953 15.4499C12.1953 12.2399 14.8053 9.65991 18.0003 9.65991C21.1953 9.65991 23.8053 12.2549 23.8053 15.4649C23.8053 18.6749 21.1953 21.2549 18.0003 21.2549ZM18.0003 11.9099C16.0503 11.9099 14.4453 13.4999 14.4453 15.4649C14.4453 17.4299 16.0353 19.0199 18.0003 19.0199C19.9653 19.0199 21.5553 17.4299 21.5553 15.4649C21.5553 13.4999 19.9503 11.9099 18.0003 11.9099Z" fill="white"/>
<path d="M18.0005 34.14C15.7805 34.14 13.5455 33.3 11.8055 31.635C7.38051 27.375 2.49051 20.58 4.33551 12.495C6.00051 5.16 12.4055 1.875 18.0005 1.875C18.0005 1.875 18.0005 1.875 18.0155 1.875C23.6105 1.875 30.0155 5.16 31.6805 12.51C33.5105 20.595 28.6205 27.375 24.1955 31.635C22.4555 33.3 20.2205 34.14 18.0005 34.14ZM18.0005 4.125C13.6355 4.125 8.02551 6.45 6.54051 12.99C4.92051 20.055 9.36051 26.145 13.3805 30C15.9755 32.505 20.0405 32.505 22.6355 30C26.6405 26.145 31.0805 20.055 29.4905 12.99C27.9905 6.45 22.3655 4.125 18.0005 4.125Z" fill="white"/>
</svg>
