<svg width="35" height="35" viewBox="0 0 35 35" fill="none" xmlns="http://www.w3.org/2000/svg">
<path d="M17.5007 18.5936C12.8777 18.5936 9.11523 14.8311 9.11523 10.2082C9.11523 5.58525 12.8777 1.82275 17.5007 1.82275C22.1236 1.82275 25.8861 5.58525 25.8861 10.2082C25.8861 14.8311 22.1236 18.5936 17.5007 18.5936ZM17.5007 4.01025C14.0882 4.01025 11.3027 6.79567 11.3027 10.2082C11.3027 13.6207 14.0882 16.4061 17.5007 16.4061C20.9132 16.4061 23.6986 13.6207 23.6986 10.2082C23.6986 6.79567 20.9132 4.01025 17.5007 4.01025Z" fill="#2B2A2A"/>
<path d="M30.0268 33.1771C29.4289 33.1771 28.9331 32.6813 28.9331 32.0833C28.9331 27.0521 23.7997 22.9688 17.4997 22.9688C11.1997 22.9688 6.06641 27.0521 6.06641 32.0833C6.06641 32.6813 5.57057 33.1771 4.97266 33.1771C4.37474 33.1771 3.87891 32.6813 3.87891 32.0833C3.87891 25.8563 9.98932 20.7812 17.4997 20.7812C25.0102 20.7812 31.1206 25.8563 31.1206 32.0833C31.1206 32.6813 30.6247 33.1771 30.0268 33.1771Z" fill="#2B2A2A"/>
</svg>
