<svg width="40" height="40" viewBox="0 0 40 40" fill="none" xmlns="http://www.w3.org/2000/svg">
<path d="M15.9504 31.3666C15.6337 31.3666 15.3171 31.25 15.0671 31L4.95039 20.8833C4.46706 20.4 4.46706 19.6 4.95039 19.1166L15.0671 8.99995C15.5504 8.51662 16.3504 8.51662 16.8337 8.99995C17.3171 9.48328 17.3171 10.2833 16.8337 10.7666L7.60039 20L16.8337 29.2333C17.3171 29.7166 17.3171 30.5166 16.8337 31C16.6004 31.25 16.2671 31.3666 15.9504 31.3666Z" fill="white"/>
<path d="M34.1672 21.25H6.11719C5.43385 21.25 4.86719 20.6833 4.86719 20C4.86719 19.3167 5.43385 18.75 6.11719 18.75H34.1672C34.8505 18.75 35.4172 19.3167 35.4172 20C35.4172 20.6833 34.8505 21.25 34.1672 21.25Z" fill="white"/>
</svg>
