<svg width="20" height="20" viewBox="0 0 20 20" fill="none" xmlns="http://www.w3.org/2000/svg">
<path d="M14.041 2.4165C14.2494 2.62484 14.3535 2.8715 14.3535 3.1565C14.3535 3.44095 14.2494 3.68734 14.041 3.89567L7.93685 9.99984L14.0618 16.1248C14.2563 16.3193 14.3535 16.5623 14.3535 16.854C14.3535 17.1457 14.2493 17.3957 14.041 17.604C13.8327 17.8123 13.586 17.9165 13.301 17.9165C13.0166 17.9165 12.7702 17.8123 12.5618 17.604L5.56185 10.5832C5.47852 10.4998 5.41935 10.4096 5.38435 10.3123C5.3499 10.2151 5.33268 10.1109 5.33268 9.99984C5.33268 9.88873 5.3499 9.78456 5.38435 9.68734C5.41935 9.59011 5.47852 9.49984 5.56185 9.4165L12.5827 2.39567C12.7771 2.20123 13.0166 2.104 13.301 2.104C13.586 2.104 13.8327 2.20817 14.041 2.4165Z" fill="#EBB44A"/>
</svg>
