<svg width="52" height="52" viewBox="0 0 52 52" fill="none" xmlns="http://www.w3.org/2000/svg">
<g id="vuesax/outline/video-circle">
<g id="video-circle">
<path id="Vector" d="M23.3136 35.4683C22.4036 35.4683 21.5586 35.2516 20.8003 34.8183C19.067 33.8216 18.0703 31.7849 18.0703 29.2066V22.7933C18.0703 20.2366 19.067 18.1783 20.8003 17.1816C22.5336 16.1849 24.787 16.3366 27.0186 17.6366L32.587 20.8433C34.797 22.1216 36.0753 24.0066 36.0753 25.9999C36.0753 27.9933 34.797 29.8783 32.587 31.1566L27.0186 34.3633C25.762 35.0999 24.4836 35.4683 23.3136 35.4683ZM23.3353 19.7816C22.9886 19.7816 22.6853 19.8466 22.447 19.9983C21.7536 20.4099 21.342 21.4283 21.342 22.7933V29.2066C21.342 30.5716 21.732 31.5899 22.447 32.0016C23.1403 32.4133 24.2236 32.2399 25.4153 31.5466L30.9836 28.3399C32.1753 27.6466 32.847 26.8016 32.847 25.9999C32.847 25.1983 32.1753 24.3316 30.9836 23.6599L25.4153 20.4533C24.6353 19.9983 23.9203 19.7816 23.3353 19.7816Z" fill="#E2E2E2"/>
<path id="Vector_2" d="M26.0007 49.2917C13.1523 49.2917 2.70898 38.8484 2.70898 26C2.70898 13.1517 13.1523 2.70837 26.0007 2.70837C38.849 2.70837 49.2923 13.1517 49.2923 26C49.2923 38.8484 38.849 49.2917 26.0007 49.2917ZM26.0007 5.95837C14.9507 5.95837 5.95898 14.95 5.95898 26C5.95898 37.05 14.9507 46.0417 26.0007 46.0417C37.0507 46.0417 46.0423 37.05 46.0423 26C46.0423 14.95 37.0507 5.95837 26.0007 5.95837Z" fill="#E2E2E2"/>
</g>
</g>
</svg>
